<svg id="visual" viewBox="0 0 900 450" width="900" height="450" xmlns="http://www.w3.org/2000/svg" xmlns:xlink="http://www.w3.org/1999/xlink" version="1.1"><rect x="0" y="0" width="900" height="450" fill="#002233"></rect><path d="M0 383L21.5 373.8C43 364.7 86 346.3 128.8 333C171.7 319.7 214.3 311.3 257.2 319.3C300 327.3 343 351.7 385.8 352.3C428.7 353 471.3 330 514.2 329.8C557 329.7 600 352.3 642.8 357.2C685.7 362 728.3 349 771.2 348.2C814 347.3 857 358.7 878.5 364.3L900 370L900 451L878.5 451C857 451 814 451 771.2 451C728.3 451 685.7 451 642.8 451C600 451 557 451 514.2 451C471.3 451 428.7 451 385.8 451C343 451 300 451 257.2 451C214.3 451 171.7 451 128.8 451C86 451 43 451 21.5 451L0 451Z" fill="#0066FF" stroke-linecap="round" stroke-linejoin="miter"></path></svg>